<?xml version="1.0" encoding="utf-8"?>
<!-- Generator: Adobe Illustrator 26.3.1, SVG Export Plug-In . SVG Version: 6.00 Build 0)  -->
<svg version="1.1" id="Layer_1" xmlns="http://www.w3.org/2000/svg" xmlns:xlink="http://www.w3.org/1999/xlink" x="0px" y="0px"
	 viewBox="0 0 200 200" style="enable-background:new 0 0 200 200;" xml:space="preserve">
<style type="text/css">
	.st0{clip-path:url(#SVGID_00000078010668444950265800000015381846698912985221_);}
	.st1{fill:#F3F3F3;}
	.st2{clip-path:url(#SVGID_00000089559602813786845970000001469153145023182727_);}
	.st3{clip-path:url(#SVGID_00000044142065906391875890000001155639969770295458_);}
</style>
<g>
	<g>
		<defs>
			<rect id="SVGID_1_" x="6.5" y="64.8" width="117.6" height="117.6"/>
		</defs>
		<clipPath id="SVGID_00000007386130080043096090000008741414953811479697_">
			<use xlink:href="#SVGID_1_"  style="overflow:visible;"/>
		</clipPath>
		<g style="clip-path:url(#SVGID_00000007386130080043096090000008741414953811479697_);">
			<path class="st1" d="M65.2,182.4c-0.3-0.5-0.5-0.9-0.6-1.2c-2-6.3-4-12.6-6-18.9c-2.1-6.8-4.1-13.6-6.1-20.4
				c-0.3-1.1-0.6-2.3-1.1-3.4c-0.3-0.6-0.9-1.1-1.5-1.3c-6.9-2.1-13.8-4.2-20.6-6.2c-7.3-2.2-14.6-4.5-21.9-6.7
				c-0.4-0.1-0.7-0.4-1-0.6c0.3-0.3,0.6-0.7,1-0.8c8.3-2.5,16.7-5.1,25-7.6c5.8-1.7,11.5-3.5,17.2-5.3c0.8-0.3,1.6-1.2,1.9-2
				c1.8-5.4,3.5-10.8,5.2-16.2c1.3-4.4,2.6-8.8,3.9-13.2c1.3-4.4,2.6-8.7,4-13c0.1-0.3,0.5-0.6,0.7-0.6c0.2,0,0.5,0.4,0.6,0.7
				c2.1,6.8,4.1,13.7,6.1,20.5c2.2,7.4,4.4,14.7,6.8,22c0.2,0.8,1.2,1.6,2,1.8c8.1,2.6,16.3,5.1,24.5,7.6c4.4,1.3,8.9,2.6,13.3,3.9
				c1.5,0.5,3.1,1,4.6,1.5c0.3,0.1,0.5,0.4,0.8,0.6c-0.3,0.3-0.5,0.7-0.8,0.8c-4.1,1.3-8.2,2.5-12.4,3.8c-4.6,1.4-9.1,2.7-13.7,4
				c-5.4,1.7-10.9,3.3-16.3,5.1c-0.9,0.3-1.8,1.2-2.1,2.1c-1.7,5.2-3.2,10.4-4.8,15.7c-1.7,5.7-3.4,11.3-5.2,17
				c-1,3.2-1.9,6.4-2.9,9.6C65.9,181.8,65.6,182,65.2,182.4L65.2,182.4z"/>
		</g>
	</g>
	<g>
		<defs>
			<rect id="SVGID_00000020361537015677916200000013280849438075389332_" x="140.6" y="64.8" width="53.9" height="53.9"/>
		</defs>
		<clipPath id="SVGID_00000036949003965171469590000002028704565155939775_">
			<use xlink:href="#SVGID_00000020361537015677916200000013280849438075389332_"  style="overflow:visible;"/>
		</clipPath>
		<g style="clip-path:url(#SVGID_00000036949003965171469590000002028704565155939775_);">
			<path class="st1" d="M167.5,118.7c-0.1-0.2-0.2-0.4-0.3-0.6c-0.9-2.9-1.9-5.8-2.7-8.7c-1-3.1-1.9-6.2-2.8-9.4
				c-0.2-0.5-0.3-1.1-0.5-1.6c-0.1-0.3-0.4-0.5-0.7-0.6c-3.1-1-6.3-1.9-9.5-2.9c-3.3-1-6.7-2-10-3.1c-0.2,0-0.3-0.2-0.4-0.3
				c0.2-0.1,0.3-0.3,0.4-0.4c3.8-1.2,7.6-2.3,11.5-3.5c2.6-0.8,5.3-1.6,7.9-2.4c0.4-0.1,0.8-0.6,0.9-0.9c0.8-2.5,1.6-4.9,2.4-7.4
				c0.6-2,1.2-4,1.8-6c0.6-2,1.2-4,1.8-6c0-0.1,0.2-0.3,0.3-0.3c0.1,0,0.2,0.2,0.3,0.3c0.9,3.1,1.9,6.3,2.8,9.4
				c1,3.4,2,6.7,3.1,10.1c0.1,0.3,0.5,0.7,0.9,0.8c3.7,1.2,7.5,2.3,11.2,3.5c2,0.6,4.1,1.2,6.1,1.8c0.7,0.2,1.4,0.4,2.1,0.7
				c0.1,0,0.2,0.2,0.3,0.3c-0.1,0.1-0.2,0.3-0.4,0.3c-1.9,0.6-3.8,1.2-5.7,1.7c-2.1,0.6-4.2,1.2-6.3,1.9c-2.5,0.8-5,1.5-7.5,2.3
				c-0.4,0.1-0.8,0.6-1,1c-0.8,2.4-1.5,4.8-2.2,7.2c-0.8,2.6-1.6,5.2-2.4,7.8c-0.4,1.5-0.9,3-1.3,4.4
				C167.8,118.4,167.7,118.5,167.5,118.7L167.5,118.7z"/>
		</g>
	</g>
	<g>
		<defs>
			<rect id="SVGID_00000130615359142527004860000015474144321809512378_" x="150" y="17.2" width="29.4" height="29.4"/>
		</defs>
		<clipPath id="SVGID_00000111163275321031599130000000414534866498719910_">
			<use xlink:href="#SVGID_00000130615359142527004860000015474144321809512378_"  style="overflow:visible;"/>
		</clipPath>
		<g style="clip-path:url(#SVGID_00000111163275321031599130000000414534866498719910_);">
			<path class="st1" d="M164.7,46.6c-0.1-0.1-0.1-0.2-0.2-0.3c-0.5-1.6-1-3.2-1.5-4.7c-0.5-1.7-1-3.4-1.5-5.1
				c-0.1-0.3-0.1-0.6-0.3-0.9c-0.1-0.1-0.2-0.3-0.4-0.3c-1.7-0.5-3.4-1-5.2-1.6c-1.8-0.6-3.6-1.1-5.5-1.7c-0.1,0-0.2-0.1-0.2-0.2
				c0.1-0.1,0.2-0.2,0.2-0.2c2.1-0.6,4.2-1.3,6.2-1.9c1.4-0.4,2.9-0.9,4.3-1.3c0.2-0.1,0.4-0.3,0.5-0.5c0.5-1.3,0.9-2.7,1.3-4.1
				c0.3-1.1,0.6-2.2,1-3.3c0.3-1.1,0.7-2.2,1-3.3c0-0.1,0.1-0.2,0.2-0.1c0.1,0,0.1,0.1,0.2,0.2c0.5,1.7,1,3.4,1.5,5.1
				c0.6,1.8,1.1,3.7,1.7,5.5c0.1,0.2,0.3,0.4,0.5,0.5c2,0.6,4.1,1.3,6.1,1.9c1.1,0.3,2.2,0.6,3.3,1c0.4,0.1,0.8,0.2,1.1,0.4
				c0.1,0,0.1,0.1,0.2,0.2c-0.1,0.1-0.1,0.2-0.2,0.2c-1,0.3-2.1,0.6-3.1,0.9c-1.1,0.3-2.3,0.7-3.4,1c-1.4,0.4-2.7,0.8-4.1,1.3
				c-0.2,0.1-0.5,0.3-0.5,0.5c-0.4,1.3-0.8,2.6-1.2,3.9c-0.4,1.4-0.9,2.8-1.3,4.2c-0.2,0.8-0.5,1.6-0.7,2.4
				C164.8,46.5,164.8,46.5,164.7,46.6L164.7,46.6z"/>
		</g>
	</g>
</g>
</svg>
